PathFileType	4	(X/Y/Z)	./resultDataOpenSim/trcMotMarkerGrf/sub09/qtm-05-04.trc
DataRate	CameraRate	NumFrames	NumMarkers	Units	OrigDataRate	OrigDataStartFrame	OrigNumFrames
250.000000	250.000000	15	24	m	250.000000	398	636
Frame#	Time	L.Toe.Tip			R.Toe.Tip			L.Ankle.Lat			R.Ankle.Lat			L.Ankle.Med			R.Ankle.Med			L.Heel			R.Heel			L.Knee.Lat			R.Knee.Lat			L.Knee.Med			R.Knee.Med			L.Thigh.Upper			R.Thigh.Upper			L.ASIS			R.ASIS			V.Sacral			L.Acromium			R.Acromium			C7			L.Elbow			R.Elbow			L.Wrist.Lat			R.Wrist.Lat
		X1	Y1	Z1	X2	Y2	Z2	X3	Y3	Z3	X4	Y4	Z4	X5	Y5	Z5	X6	Y6	Z6	X7	Y7	Z7	X8	Y8	Z8	X9	Y9	Z9	X10	Y10	Z10	X11	Y11	Z11	X12	Y12	Z12	X13	Y13	Z13	X14	Y14	Z14	X15	Y15	Z15	X16	Y16	Z16	X17	Y17	Z17	X18	Y18	Z18	X19	Y19	Z19	X20	Y20	Z20	X21	Y21	Z21	X22	Y22	Z22	X23	Y23	Z23	X24	Y24	Z24

398	1.588	1.0161036	0.10711875	0.0051938892	0.99413695	0.038680123	0.11583048	0.90816998	0.21693991	-0.026720616	0.8463413	0.055884835	0.14782951	0.93656877	0.21341766	0.067201499	NaN	NaN	NaN	0.82863781	0.21645081	0.020112677	0.77681864	0.038841816	0.097516282	1.1516612	0.54396146	-0.051423499	0.97599392	0.49568265	0.21320963	1.157608	0.53820937	0.074886663	0.95384671	0.4863141	0.089684359	0.9278404	0.89126454	-0.08760643	0.91907068	0.89963584	0.28375386	0.99371339	0.97947284	-0.02740524	1.0023761	0.98556145	0.20942689	0.8287819	1.0355785	0.091302939	0.97579165	1.4315924	-0.087035918	0.96966816	1.4499825	0.24396528	0.90168145	1.4868401	0.078015853	0.84364683	1.0847742	-0.13354332	0.84119843	1.1036688	0.3409504	0.9780011	0.86223815	-0.17949754	1.0442867	0.91267987	0.33078447
399	1.592	1.0339065	0.10498699	0.0048388984	0.99432316	0.038724542	0.11582051	0.92287843	0.21160319	-0.026894373	0.8464096	0.055994239	0.14769306	0.95145236	0.20874506	0.067213546	NaN	NaN	NaN	0.84330464	0.20879909	0.019956952	0.77688145	0.039034401	0.097340241	1.1581507	0.54519338	-0.051327883	0.97725322	0.49553461	0.21329092	1.1640216	0.53942871	0.074777695	0.95472238	0.48650991	0.08942562	0.93304581	0.8917898	-0.08779059	0.9214294	0.89966723	0.28411987	0.99862739	0.9800179	-0.02735849	1.0070055	0.98588836	0.20951694	0.83363703	1.0357888	0.091111407	0.98005152	1.4318529	-0.087049621	0.97435382	1.4503535	0.2439712	0.9062348	1.4871492	0.07810605	0.84718374	1.0853772	-0.13377923	0.84624467	1.103801	0.34127939	0.9809186	0.86263129	-0.18049011	1.0502426	0.91379843	0.33023731
400	1.596	1.0517899	0.1029008	0.0045488909	0.99453935	0.038729079	0.11576159	0.93774648	0.20617935	-0.027075402	0.84646844	0.056073102	0.14755136	0.96672572	0.20411432	0.06714276	NaN	NaN	NaN	0.85816231	0.20107367	0.01978808	0.7769382	0.039222472	0.097152548	1.1644496	0.54626633	-0.051259323	0.97849996	0.49538387	0.21337054	1.1702683	0.54045961	0.074648263	0.95566231	0.48677418	0.089035328	0.93822274	0.89223892	-0.08793224	0.9237016	0.89969843	0.28453688	1.0035622	0.98049082	-0.027306469	1.0116363	0.98617901	0.20961507	0.83840789	1.035931	0.09094227	0.98432591	1.4320649	-0.087059721	0.97904739	1.4506607	0.24397873	0.9107849	1.4874007	0.078197859	0.85076177	1.085914	-0.13402663	0.85128722	1.103875	0.34160437	0.98386969	0.86296549	-0.18147482	1.0561597	0.9148526	0.32969644
401	1.6	1.0697326	0.10088593	0.0043171795	0.99473313	0.038667468	0.11568219	0.95276043	0.2006896	-0.027251793	0.84651219	0.056145901	0.14740562	0.98249884	0.1995259	0.066775999	NaN	NaN	NaN	0.87327739	0.1932711	0.019576068	0.77699054	0.039407281	0.096958601	1.1705423	0.54716557	-0.05120718	0.979742	0.4952296	0.21345754	1.1763747	0.54130722	0.074506972	0.95683908	0.48697724	0.088617067	0.94339212	0.89261734	-0.088058609	0.92682584	0.89981739	0.28478286	1.0085347	0.98089313	-0.027261334	1.0162656	0.98643419	0.20972573	0.84312889	1.0360096	0.090780897	0.98860857	1.4322233	-0.087075301	0.98374561	1.4509037	0.24398881	0.91533023	1.4876027	0.078284957	0.854415	1.0864009	-0.1343117	0.85634581	1.1038956	0.34193168	0.98685492	0.86324365	-0.18245746	1.0620312	0.91584371	0.32916251
402	1.604	1.0877296	0.098978542	0.0041294345	0.99489219	0.038535605	0.11560462	0.96790269	0.19515694	-0.027416744	0.84654707	0.056229275	0.14725606	0.99856418	0.19494291	0.066171063	NaN	NaN	NaN	0.88867585	0.1853904	0.01931277	0.77703933	0.0395881	0.096758549	1.1764239	0.54787428	-0.05116256	0.980986	0.49507187	0.2135561	1.1823219	0.54196015	0.074351966	0.9582193	0.48705394	0.088286252	0.94855355	0.89292334	-0.088187577	0.93100791	0.900033	0.28479578	1.0135551	0.9812331	-0.027227904	1.020889	0.986654	0.20984797	0.84784777	1.036033	0.090614861	0.99289655	1.4323239	-0.087104926	0.98844491	1.451085	0.24400085	0.91988824	1.4877615	0.078368014	0.85812484	1.0868522	-0.13459006	0.86146844	1.1038738	0.34227987	0.98987707	0.86346814	-0.1834364	1.0678633	0.91676583	0.32863753
403	1.608	1.1057835	0.097214161	0.0039633892	0.99496745	0.038390714	0.11554931	0.98316331	0.18960298	-0.027564384	0.84658347	0.056322749	0.14710211	1.014506	0.1903171	0.065613946	NaN	NaN	NaN	0.90428608	0.17746907	0.019053391	0.77708683	0.039762011	0.096551891	1.1821321	0.54837451	-0.051125608	0.98223589	0.49490899	0.21367045	1.1881029	0.54241084	0.074184962	0.95963679	0.48703044	0.088116939	0.95370211	0.89315014	-0.088314997	0.93579382	0.90028592	0.28467129	1.018626	0.98151501	-0.02720269	1.0255028	0.98683425	0.2099761	0.85258549	1.0360062	0.090443229	0.99719376	1.4323672	-0.087144617	0.99314313	1.4512073	0.24401203	0.9244621	1.4878697	0.078445608	0.86186871	1.0872745	-0.13477671	0.86670461	1.10382	0.34267294	0.99293811	0.86363804	-0.18440476	1.0736735	0.9176101	0.32812267
404	1.612	1.1238903	0.095613122	0.0037974062	0.99488104	0.038321451	0.11553185	0.99853768	0.18405123	-0.027683543	0.84662748	0.056418198	0.14694457	1.0301397	0.18564117	0.06527943	NaN	NaN	NaN	0.92004552	0.1695534	0.018852712	0.77713598	0.039924789	0.096339508	1.1877339	0.54865135	-0.05110536	0.98348712	0.49473521	0.21380047	1.1937364	0.54266028	0.074018589	0.96097574	0.48697087	0.088088096	0.95884056	0.8932934	-0.088430812	0.9407364	0.90051536	0.28451021	1.0237279	0.98173295	-0.027177478	1.0301077	0.98697186	0.21011017	0.8573305	1.0359229	0.090269036	1.0015033	1.4323563	-0.087183888	0.9978402	1.4512716	0.24402129	0.92903203	1.4879202	0.078507532	0.86563013	1.0876511	-0.13486571	0.87204092	1.1037303	0.34310814	0.99603779	0.86375272	-0.18536036	1.079473	0.91837293	0.32761804
405	1.616	1.1420408	0.094176842	0.0036165773	0.99466115	0.038362639	0.11554587	1.0140202	0.17852367	-0.02776422	0.84667965	0.056510083	0.14678511	1.0456088	0.18095943	0.065119199	NaN	NaN	NaN	0.93598274	0.16165778	0.018712026	0.77718628	0.040076145	0.096121625	1.1932729	0.54870943	-0.051108371	0.98472992	0.4945433	0.21394361	1.1992192	0.54270478	0.073862681	0.9622375	0.48692026	0.088123516	0.96397461	0.89335535	-0.088534695	0.94562133	0.90069226	0.28435871	1.028824	0.98187505	-0.027141351	1.0347101	0.98706736	0.21025569	0.86204968	1.035761	0.090092956	1.0058235	1.4322951	-0.087220052	1.0025367	1.451277	0.2440267	0.93358805	1.4879206	0.078546035	0.86938337	1.087935	-0.13499437	0.87740203	1.1035871	0.34354736	0.99917338	0.86381416	-0.18630597	1.0852599	0.91905595	0.32712427
406	1.62	1.1602279	0.092895219	0.0034049167	0.99446522	0.038470884	0.11557441	1.0296101	0.17302804	-0.027813688	0.84673484	0.056597654	0.14662362	1.0611331	0.17631749	0.06502083	NaN	NaN	NaN	0.95214288	0.15378529	0.018601482	0.77723318	0.040222693	0.095896921	1.1987371	0.54858736	-0.051133884	0.98595799	0.49433026	0.21410009	1.2045497	0.54254181	0.073717733	0.96350673	0.48688501	0.088190686	0.96910349	0.89334015	-0.088633051	0.95038011	0.90081491	0.28422841	1.0338997	0.98193401	-0.027088926	1.0393143	0.9871195	0.21041282	0.86671737	1.0355006	0.089917121	1.0101557	1.4321869	-0.087257047	1.0072317	1.4512233	0.24402349	0.93815026	1.4878828	0.078566657	0.87314042	1.0880966	-0.13529518	0.88272736	1.1033743	0.34395095	1.0023421	0.86382423	-0.18724213	1.0910276	0.91966318	0.32664239
407	1.624	1.178438	0.091755758	0.0031391879	0.99440697	0.038574065	0.11560792	1.0453144	0.16756367	-0.027856847	0.84678162	0.0566832	0.14646179	1.0768247	0.17173943	0.064923907	NaN	NaN	NaN	0.96852672	0.14596694	0.018486747	0.77727282	0.040371975	0.09566513	1.2040713	0.54833446	-0.051184366	0.98717145	0.49410001	0.21427047	1.2097627	0.5421765	0.073577462	0.964857	0.48685442	0.088303067	0.97422394	0.89325009	-0.08873359	0.95499837	0.90088769	0.28412263	1.0389704	0.98191244	-0.027022663	1.0439182	0.98712328	0.21057476	0.87135033	1.0351621	0.089749428	1.0145086	1.4320343	-0.087299161	1.0119268	1.4511133	0.24401172	0.94273819	1.487809	0.078581264	0.87696541	1.0881742	-0.13570703	0.8879959	1.1030898	0.34430012	1.0055451	0.86378237	-0.18816698	1.0967729	0.92019933	0.32617375
408	1.628	1.1966423	0.09074683	0.0027990334	0.99444327	0.038621199	0.11563806	1.0611357	0.16214905	-0.027911904	0.84681148	0.056768407	0.14630666	1.0926767	0.1672496	0.064821829	NaN	NaN	NaN	0.98511449	0.13826317	0.018340362	0.77730474	0.040527978	0.095432832	1.2092157	0.54795799	-0.051270056	0.9883728	0.49385936	0.21445199	1.2148895	0.54161467	0.073431039	0.96626782	0.4868198	0.088441371	0.97934339	0.89308668	-0.088842399	0.95946908	0.90090632	0.28404322	1.0440503	0.98181848	-0.026945419	1.0485202	0.98707511	0.21073763	0.87600203	1.0348016	0.089587292	1.0188885	1.431836	-0.087349869	1.0166266	1.45095	0.24399655	0.94734493	1.4876902	0.078596873	0.88090628	1.0882358	-0.13603906	0.8932008	1.1027442	0.34459449	1.0087872	0.86368735	-0.18907976	1.1024965	0.92066688	0.32572111
409	1.632	1.214805	0.089855468	0.002378836	0.99446486	0.03861227	0.11565647	1.0770622	0.15682507	-0.027968898	0.84683101	0.056850448	0.14616637	1.1086335	0.16287748	0.064726539	NaN	NaN	NaN	1.0018848	0.13074197	0.018139662	0.77732964	0.040693366	0.095214266	1.2141364	0.54741697	-0.051400334	0.98956776	0.49361426	0.21464643	1.2199232	0.54086007	0.073270654	0.9676385	0.48677433	0.088519289	0.984476	0.89284961	-0.088962374	0.96379625	0.90086237	0.28398617	1.0491417	0.98165721	-0.026859963	1.0531229	0.986976	0.21090539	0.88070862	1.0344421	0.089402356	1.0232911	1.4315889	-0.087408511	1.0213321	1.4507355	0.24397936	0.95196194	1.4875126	0.078620332	0.88495873	1.0883128	-0.13617543	0.89834963	1.1023473	0.34484516	1.0120722	0.86354035	-0.18998141	1.1081996	0.92106492	0.3252863
410	1.636	1.2328992	0.089067912	0.001892588	0.99441277	0.038595533	0.11564614	1.0930778	0.15163	-0.027997913	0.84685795	0.056923077	0.14604564	1.1246534	0.15864093	0.06464576	NaN	NaN	NaN	1.0188146	0.12345773	0.017879188	0.7773464	0.040870485	0.095021496	1.2188303	0.54666742	-0.051572737	0.99076743	0.49336919	0.21486737	1.2248275	0.53991745	0.073091955	0.96890571	0.48671543	0.088477207	0.98961731	0.89253774	-0.089087663	0.96800707	0.90075466	0.28394069	1.0542519	0.98142731	-0.026775213	1.0577301	0.98682943	0.21108332	0.88545676	1.0340334	0.089159633	1.0277073	1.4312939	-0.087471167	1.0260422	1.4504713	0.24395804	0.95659781	1.4872613	0.07867032	0.88907969	1.0883831	-0.1361649	0.90346271	1.1018974	0.34505966	1.0154021	0.86334476	-0.19087428	1.1138827	0.92139058	0.32486612
411	1.64	1.2509114	0.088377753	0.0013723422	0.99427195	0.038613518	0.11554994	1.1091688	0.14658831	-0.027981913	0.84690103	0.056984289	0.14594532	1.1407152	0.15454214	0.06458518	NaN	NaN	NaN	1.0358877	0.11643096	0.017619566	0.77735262	0.041060115	0.09485786	1.2233202	0.54569444	-0.051768574	0.99197934	0.49312587	0.21512991	1.229568	0.53879514	0.072888328	0.97015027	0.48665235	0.088407532	0.99473839	0.89215493	-0.089202175	0.97214202	0.90059329	0.28389057	1.059409	0.98112655	-0.026707153	1.0623419	0.98663732	0.21126965	0.89023083	1.0335167	0.088855415	1.0321326	1.4309568	-0.087536785	1.0307581	1.4501596	0.24393198	0.96125386	1.4869323	0.078765339	0.89320856	1.0883971	-0.13615614	0.90855863	1.1013873	0.34523613	1.0187764	0.86310177	-0.1917614	1.1195473	0.92164008	0.32445509
412	1.644	1.2688312	0.087789196	0.00085700412	0.99403981	0.038651975	0.11530866	1.1253194	0.1417167	-0.027939986	0.84693744	0.057048513	0.14586162	1.1567997	0.15057287	0.064558953	NaN	NaN	NaN	1.053093	0.10965027	0.017474012	0.77734771	0.041261144	0.094723794	1.2276431	0.54451231	-0.051967012	0.99320313	0.49288391	0.21544321	1.2341292	0.5375045	0.072654895	0.97152759	0.48659984	0.088490021	0.99981676	0.89170903	-0.089294994	0.97623789	0.9003933	0.28382468	1.0646462	0.98075777	-0.026667617	1.0669555	0.98639951	0.21145552	0.89506429	1.0329061	0.088524908	1.0365679	1.4305823	-0.087606107	1.0354819	1.4498021	0.24390082	0.96591213	1.4865476	0.07888809	0.89731209	1.0883181	-0.13625923	0.91365514	1.1008192	0.34537714	1.0221922	0.86280864	-0.1926445	1.1251952	0.92181044	0.3240525
